<svg width="750" height="750" viewBox="0 0 750 750" fill="none" xmlns="http://www.w3.org/2000/svg">
<g clip-path="url(#clip0_1_2)">
<path d="M389.676 12.9753L388.55 12.5332C370.922 5.6164 350.858 13.8875 343.735 31.0072L68.271 693.141C61.1488 710.261 69.6655 729.746 87.2936 736.663L88.4202 737.105C106.048 744.022 126.113 735.751 133.235 718.631L408.699 56.4973C415.821 39.3776 407.305 19.8921 389.676 12.9753Z" fill="#009BCE"/>
<path d="M363.841 12.5241L362.714 12.9662C345.086 19.883 336.57 39.3684 343.692 56.4881L619.314 719.002C626.437 736.122 646.501 744.393 664.129 737.476L665.255 737.034C682.884 730.117 691.4 710.632 684.278 693.512L408.656 30.9981C401.533 13.8784 381.469 5.60729 363.841 12.5241Z" fill="#009BCE"/>
<path d="M238.499 647.321V681.358H516.07V647.321C516.087 628.62 500.548 613.417 481.293 613.284H273.276C254.02 613.407 238.482 628.61 238.499 647.321Z" fill="#009BCE"/>
<path d="M474.997 618.872L469.975 620.823C465.708 622.496 461.822 624.969 458.539 628.1C455.256 631.232 452.64 634.961 450.842 639.075C449.043 643.188 448.096 647.605 448.055 652.074C448.014 656.543 448.88 660.976 450.604 665.12L472.948 718.828C474.667 722.979 477.211 726.76 480.436 729.955C483.662 733.15 487.504 735.696 491.743 737.447C495.983 739.198 500.536 740.12 505.143 740.16C509.75 740.2 514.319 739.357 518.59 737.68C536.516 730.603 545.18 710.785 537.972 693.344L513.609 634.828C512.156 631.316 510.003 628.117 507.275 625.413C504.547 622.71 501.296 620.556 497.71 619.074C494.124 617.592 490.271 616.811 486.374 616.777C482.476 616.742 478.61 617.454 474.997 618.872ZM284.352 620.842L279.331 618.892C264.151 612.987 246.91 620.091 240.738 634.789L216.606 692.818C209.423 710.242 218.073 730.029 235.968 737.115C253.91 744.091 274.285 735.691 281.58 718.311L303.674 665.091C310.834 647.688 302.211 627.933 284.352 620.833V620.842Z" fill="#009BCE"/>
<path d="M295.467 519.218V520.4C295.467 538.711 310.344 553.555 328.697 553.555H422.322C440.674 553.555 455.552 538.711 455.552 520.4V519.218C455.552 500.907 440.674 486.063 422.322 486.063H328.697C310.344 486.063 295.467 500.907 295.467 519.218Z" fill="#0668C9"/>
<path d="M364.937 373.476L363.839 373.919C346.823 380.778 338.602 400.102 345.477 417.08L391.669 531.152C398.544 548.13 417.912 556.332 434.928 549.473L436.027 549.03C453.043 542.171 461.264 522.847 454.389 505.869L408.196 391.797C401.321 374.819 381.954 366.616 364.937 373.476Z" fill="#0668C9"/>
</g>
<defs>
<clipPath id="clip0_1_2">
<rect width="621" height="750" fill="white" transform="translate(64)"/>
</clipPath>
</defs>
</svg>
