<svg width="145" height="32" viewBox="0 0 145 32" fill="none" xmlns="http://www.w3.org/2000/svg">
  <g fill="#ffffff">
    <path d="M29.8626 17.75H29.9245C30.73 18.8343 32.2169 19.3609 34.0756 19.3609H35.0359C38.8771 19.3609 41.6961 18.3696 41.6961 13.9398V11.2447C41.6961 7.12468 39.8684 5.66873 35.1598 5.66873H33.7038C31.6283 5.66873 30.4821 6.38122 29.9555 7.12468H29.8936V0.588379H26.9507V18.9582H29.8316L29.8626 17.75ZM29.8626 11.1518C29.8626 8.08499 31.8452 8.02304 34.4783 8.02304H34.7881C37.3902 8.02304 38.7842 8.45672 38.7842 11.4306V13.5061C38.7842 15.9843 38.1336 17.0685 34.6951 17.0685H34.0446C30.7609 17.0685 29.8936 16.1702 29.8936 13.692L29.8626 11.1518Z" />
    <path d="M76.7319 6.00948H72.8597V4.83233C72.8597 3.68615 73.6032 2.7878 75.183 2.7878H78.064V0.588379H74.2227C71.8994 0.588379 69.9478 1.79651 69.9478 4.83233V6.00948H68.3989V8.33281H69.9478V19.3609H72.8597V8.33281H76.7319V6.00948Z" />
    <path d="M60.004 15.1169C60.004 18.1528 61.9556 19.3919 64.2789 19.3919H67.8723V17.0685H64.9914C63.4115 17.0685 62.9159 16.2631 62.9159 15.1479V8.33281H66.8191V6.00948H62.9159V0.588379H60.035V6.00948H58.4861V8.33281H60.035L60.004 15.1169Z" />
    <path d="M93.3359 0.588379H96.2169V3.53126H93.3359V0.588379Z" />
    <path d="M93.3359 5.69971H96.2479V19.3919H93.3359V5.69971Z" />
    <path d="M49.1618 19.3916H51.764C55.2645 19.3916 56.8753 18.2765 57.278 16.3249L54.7069 15.5504C54.2732 16.7585 53.2509 17.0683 50.9895 17.0683H50.308C46.5907 17.0683 46.0021 16.6037 46.0021 13.6917H57.4949V11.1516C57.4949 6.56687 55.1096 5.73047 51.2993 5.73047H49.8743C46.8695 5.73047 43.2141 6.25709 43.2141 10.9347V14.1564C43.2141 18.6482 46.4048 19.3916 49.1618 19.3916ZM46.0021 10.9038C46.0021 8.27064 47.2412 8.02282 50.2151 8.02282H50.8037C54.1493 8.02282 54.5829 8.85922 54.5829 10.594V11.3374H46.0021V10.9038Z" />
    <path d="M84.2904 5.69971H83.2062C79.272 5.69971 77.5683 6.90784 77.4753 8.70455L80.2323 9.63388C80.3562 8.39477 81.7812 8.02304 83.9187 8.02304C87.1094 8.02304 87.8838 8.2089 87.8838 10.5322V11.8023H87.8219C87.1094 10.811 86.1181 10.5632 83.6089 10.5632H82.4937C78.8074 10.5632 76.6389 11.4925 76.6389 14.4044V15.2408C76.6389 17.6571 77.5682 19.3919 81.4095 19.3919H84.2285C87.0165 19.3919 87.2953 18.9272 87.8529 18.1218H87.8838V19.3919H90.7648V10.5632C90.7648 6.75295 88.2246 5.69971 84.2904 5.69971ZM87.8838 15.3028C87.8838 16.6039 87.0165 17.0685 83.5779 17.0685H82.8035C79.8916 17.0685 79.5199 16.5109 79.5199 15.3957V14.6523C79.5199 13.3512 80.2323 12.8865 82.6486 12.8865H83.9497C86.1491 12.8865 87.8838 13.3202 87.8838 14.7452V15.3028Z" />
    <path d="M105.077 5.69954C103.683 5.63758 102.382 6.35007 101.669 7.52722H101.576V5.69954H98.8191V19.3917H101.731V11.1516C101.731 9.47882 102.691 8.02287 104.922 8.02287C106.533 8.02287 107.307 8.45656 107.462 8.92122L109.29 7.68211C108.856 6.443 107.648 5.66856 105.077 5.69954Z" />
    <path d="M21.6226 0.650391H14.126V4.3987H10.1299L17.8743 13.4442L25.6188 4.3987H21.6226V0.650391Z" />
    <path d="M0.247803 15.5196H4.24393V19.2989H11.7405V15.5196H15.7676L7.99224 6.47412L0.247803 15.5196Z" />
    <path d="M26.8887 31.5971V23.6978H28.0658V31.5971H26.8887ZM31.0087 31.5971L29.212 28.4993H27.9729L27.6012 28.4064L27.756 27.57V27.3841H29.212C29.5218 27.3841 29.8006 27.3221 29.9864 27.1982C30.1723 27.0743 30.3272 26.9194 30.3892 26.7336C30.4821 26.5167 30.5131 26.2999 30.5131 26.0521C30.5131 25.7423 30.4511 25.4635 30.3582 25.2776C30.2652 25.0918 30.1104 24.9678 29.8935 24.8749C29.6767 24.782 29.4288 24.751 29.1191 24.751H28.0348V24.5032L27.5702 23.6978H28.0658H28.5615C28.5615 23.6978 28.8712 23.6978 28.9952 23.6978C29.9245 23.6978 30.606 23.8836 31.0707 24.2244C31.5353 24.5651 31.7522 25.1537 31.7522 25.9281C31.7522 26.176 31.7212 26.4238 31.6592 26.7026C31.5973 26.9814 31.5044 27.1982 31.3495 27.4151C31.1946 27.6319 31.0087 27.8178 30.7609 28.0037C30.5131 28.1585 30.2033 28.2825 29.8625 28.3444L29.7386 28.1895C29.8935 28.1895 30.0484 28.1895 30.1413 28.2205C30.2343 28.2515 30.3272 28.2825 30.4201 28.3754C30.5131 28.4683 30.606 28.5922 30.6989 28.7471L32.3408 31.5971H31.0087Z" />
    <path d="M35.5314 31.7519C34.9428 31.7519 34.4472 31.597 34.0444 31.2872C33.6108 30.9774 33.301 30.5127 33.0532 29.8932C32.8363 29.2736 32.7124 28.5302 32.7124 27.6318C32.7124 26.3307 32.9602 25.3085 33.4868 24.627C34.0135 23.9145 34.695 23.5737 35.5314 23.5737C36.3988 23.5737 37.0803 23.9145 37.6069 24.627C38.1025 25.3395 38.3813 26.3307 38.3813 27.6318C38.3813 28.5302 38.2574 29.3046 38.0406 29.8932C37.8237 30.5127 37.483 30.9774 37.0803 31.2872C36.6156 31.597 36.12 31.7519 35.5314 31.7519ZM35.5314 30.6367C36.027 30.6367 36.4297 30.4198 36.7085 29.9551C36.9873 29.4905 37.1112 28.716 37.1112 27.6318C37.1112 26.5786 36.9873 25.8041 36.7085 25.3704C36.4297 24.9368 36.027 24.6889 35.5314 24.6889C35.0357 24.6889 34.633 24.9058 34.3542 25.3704C34.0754 25.8041 33.9205 26.5786 33.9205 27.6318C33.9205 28.716 34.0754 29.4905 34.3542 29.9551C34.664 30.3888 35.0357 30.6367 35.5314 30.6367Z" />
    <path d="M38.939 31.5969L39.0939 23.7285H40.7976L41.5411 26.8573L41.7889 28.1893H41.8199L42.0677 26.8573L42.7802 23.7285H44.484L44.6079 31.5969H43.5237L43.4617 29.3665L43.5237 24.6888H43.4307L43.028 26.4236L42.1916 29.5833H41.4172L40.5188 26.4236L40.1161 24.6888H40.0232L40.0851 29.3665L40.0232 31.5969H38.939Z" />
    <path d="M44.7009 31.5969L47.2411 23.7285H48.79L51.2992 31.5969H50.0291L49.3166 29.2426L49.9981 29.7382H46.2188L46.6215 28.7159H49.6574L49.2856 29.2426L48.4492 26.4546L47.9846 24.6578H47.9536L47.4889 26.4546L45.94 31.5969H44.7009Z" />
    <path d="M51.7019 31.5971V23.6978H53.1579L55.1404 28.4993L55.791 30.1721H55.8219L55.6361 28.4683V23.6978H56.8132V31.5971H55.3573L53.3747 26.8575L52.7552 25.2157H52.7242L52.8791 26.9814V31.5971H51.7019Z" />
    <path d="M58.0833 31.5969V30.4817H59.88V25.2774C59.88 25.1535 59.9109 25.0606 59.9419 24.9986C60.0039 24.9366 60.0658 24.8747 60.1588 24.8437H58.0833V23.7285H62.8848V24.8437H61.0881V30.048C61.0881 30.1719 61.0571 30.2648 61.0261 30.3268C60.9642 30.4197 60.9022 30.4507 60.8093 30.4817H62.8848V31.5969H58.0833Z" />
    <path d="M63.4114 31.5969L65.9516 23.7285H67.5004L70.0096 31.5969H68.7395L68.0271 29.2426L68.7086 29.7382H64.9293L65.332 28.7159H68.3678L67.9961 29.2426L67.1597 26.4546L66.695 24.6578H66.664L66.1994 26.4546L64.6505 31.5969H63.4114Z" />
    <path d="M76.6699 31.5971V23.6978H77.8781V31.5971H76.6699ZM77.8781 31.5971L77.6302 30.4819H78.6835C79.1172 30.4819 79.4889 30.3889 79.7987 30.1721C80.1084 29.9553 80.3872 29.6455 80.5421 29.2428C80.697 28.8401 80.8209 28.2825 80.8209 27.6319C80.8209 26.9504 80.728 26.3928 80.5731 25.9901C80.4182 25.5874 80.1704 25.3086 79.8297 25.1227C79.5199 24.9369 79.1172 24.8749 78.6525 24.8749H77.5373L77.8161 23.7597H78.5596C79.6438 23.7597 80.5112 24.0695 81.0997 24.689C81.6883 25.3086 82.0291 26.2999 82.0291 27.6629C82.0291 28.5303 81.8742 29.2737 81.5644 29.8623C81.2546 30.4509 80.8519 30.8846 80.3253 31.1944C79.7987 31.5041 79.2101 31.659 78.5596 31.659H77.8781V31.5971Z" />
    <path d="M82.9893 31.5971V23.6978H87.6359V24.72H83.6398L84.1974 24.2244V27.2912L83.6398 26.9194H87.2022V27.9417H83.8876L84.1974 27.508V31.1324L83.6398 30.5129H87.8218V31.5661H82.9893V31.5971Z" />
    <path d="M90.8268 31.5971L88.5964 23.6978H89.9904L91.2605 28.9949L91.5703 30.4509H91.6632L92.004 28.9949L93.2741 23.6978H94.6681L92.4687 31.5661H90.8268V31.5971Z" />
    <path d="M95.4734 31.5971V23.6978H100.12V24.72H96.1239L96.6815 24.2244V27.2912L96.1239 26.9194H99.6864V27.9417H96.3717L96.6815 27.508V31.1324L96.1239 30.5129H100.306V31.5661H95.4734V31.5971Z" />
    <path d="M101.762 31.5971V23.6978H102.97V31.0395L102.382 30.4509H106.594V31.5661H101.762V31.5971Z" />
    <path d="M110.343 31.7519C109.754 31.7519 109.258 31.597 108.856 31.2872C108.422 30.9774 108.112 30.5127 107.864 29.8932C107.648 29.2736 107.524 28.5302 107.524 27.6318C107.524 26.3307 107.772 25.3085 108.298 24.627C108.825 23.9145 109.506 23.5737 110.343 23.5737C111.21 23.5737 111.892 23.9145 112.418 24.627C112.914 25.3395 113.162 26.3307 113.162 27.6318C113.162 28.5302 113.038 29.3046 112.821 29.8932C112.604 30.5127 112.263 30.9774 111.861 31.2872C111.427 31.597 110.931 31.7519 110.343 31.7519ZM110.343 30.6367C110.838 30.6367 111.241 30.4198 111.52 29.9551C111.799 29.4905 111.923 28.716 111.923 27.6318C111.923 26.5786 111.799 25.8041 111.52 25.3704C111.241 24.9368 110.838 24.6889 110.343 24.6889C109.847 24.6889 109.444 24.9058 109.165 25.3704C108.887 25.8041 108.732 26.5786 108.732 27.6318C108.732 28.716 108.887 29.4905 109.165 29.9551C109.475 30.3888 109.847 30.6367 110.343 30.6367Z" />
    <path d="M114.153 31.5971V23.6978H115.361V31.5971H114.153ZM115.733 28.902C115.64 28.902 115.547 28.871 115.485 28.7781C115.423 28.7161 115.361 28.5922 115.361 28.4683L114.989 28.0966L115.361 27.7868H116.941C117.251 27.7868 117.53 27.7249 117.746 27.6319C117.963 27.508 118.118 27.3531 118.242 27.1363C118.366 26.9194 118.397 26.6097 118.397 26.2689C118.397 25.8972 118.335 25.6184 118.211 25.4015C118.087 25.1847 117.901 25.0608 117.685 24.9678C117.468 24.8749 117.189 24.8439 116.848 24.8439H115.361L114.897 23.6978H115.361H115.919C115.919 23.6978 116.291 23.6978 116.476 23.6978H116.879C117.777 23.6978 118.49 23.8836 118.955 24.2863C119.419 24.689 119.667 25.3396 119.667 26.2379C119.667 26.5787 119.636 26.8885 119.543 27.1982C119.45 27.508 119.295 27.7868 119.079 28.0346C118.862 28.2825 118.583 28.4993 118.242 28.6542C117.901 28.8091 117.468 28.871 116.972 28.871H115.733V28.902Z" />
    <path d="M120.008 31.5969L120.163 23.7285H121.866L122.61 26.8573L122.858 28.1893H122.889L123.137 26.8573L123.849 23.7285H125.553L125.708 31.5969H124.623L124.562 29.3665L124.623 24.6888H124.531L124.128 26.4236L123.291 29.5833H122.517L121.619 26.4236L121.216 24.6888H121.123L121.185 29.3665L121.123 31.5969H120.008Z" />
    <path d="M126.637 31.5971V23.6978H131.284V24.72H127.287L127.845 24.2244V27.2912L127.287 26.9194H130.85V27.9417H127.535L127.845 27.508V31.1324L127.287 30.5129H131.469V31.5661H126.637V31.5971Z" />
    <path d="M132.74 31.5971V23.6978H134.195L136.178 28.4683L136.829 30.1411H136.86L136.674 28.4373V23.6978H137.851V31.5971H136.395L134.443 26.8575L133.824 25.2157H133.793L133.948 26.9814V31.5971H132.74Z" />
    <path d="M140.918 31.5969V25.2464C140.918 25.1225 140.949 25.0296 140.98 24.9676C141.042 24.8747 141.104 24.8437 141.197 24.8127H138.811V23.7285H144.232V24.7818H142.126V31.5969H140.918Z" />
  </g>
</svg>
