<svg viewBox="0 0 1599 624" version="1.1" xmlns="http://www.w3.org/2000/svg" xmlns:xlink="http://www.w3.org/1999/xlink"><defs></defs> <g id="LOGO" stroke="none" stroke-width="1" fill="none" fill-rule="evenodd"> <g id="LogoBytex-large" transform="translate(-192.000000, -200.000000)"> <g id="LOGO" transform="translate(192.000000, 200.000000)"> <g id="bytex" transform="translate(610.000000, 130.000000)" fill="#FFFFFF"> <path d="M52.0526026,91.9133651 C67.3651071,83.0645093 85.1431467,78 104.105263,78 C161.601012,78 208.210526,124.562386 208.210526,182 C208.210526,239.437614 161.601012,286 104.105263,286 C46.6095139,286 0,239.437614 0,182 L0,0 L52.0526316,0 L52.0526316,91.9133483 L52.0526026,91.9133651 Z M104.105263,234 C132.853138,234 156.157895,210.718807 156.157895,182 C156.157895,153.281193 132.853138,130 104.105263,130 C75.3573886,130 52.0526316,153.281193 52.0526316,182 C52.0526316,210.718807 75.3573886,234 104.105263,234 Z" id="Shape" fill-rule="nonzero"></path> <path d="M416.421053,78.0015435 L416.421053,273 C416.421053,323.257912 375.637728,364 325.328947,364 L286.288375,364 L286.288375,312 L325.328947,312 C345.41565,312 361.95918,296.845215 364.127567,277.356664 C352.356625,282.900476 339.205119,286 325.328947,286 C275.020167,286 234.236842,245.257912 234.236842,195 L234.236842,78.0015435 L286.289474,78.0015435 L286.289474,195 C286.289474,216.539105 303.768041,234 325.328947,234 C346.889853,234 364.368421,216.539105 364.368421,195 L364.368421,78.0015435 L416.421053,78.0015435 Z" id="Path" fill-rule="nonzero"></path> <path d="M624.618892,78 C606.757334,91.4061627 592.461508,109.297469 583.407033,129.999996 L520.526316,130 L520.526316,182.002622 C520.526316,201.631275 524.830494,214.529826 532.423339,222.114821 C540.016416,229.700047 552.928992,234 572.578947,234 L583.407032,234 C592.461508,254.702531 606.757334,272.593837 624.618892,286 L572.578947,286 C540.177943,286 514.05078,277.299523 495.616991,258.884793 C477.18318,240.470042 468.473684,214.369851 468.473684,182.002622 L468.473684,130 L442.447368,130 L442.447368,78 L468.473684,78 L468.473684,-1.47792889e-12 L520.526316,-1.47792889e-12 L520.526316,78 L624.618892,78 L624.618892,78 Z" id="Path" fill-rule="nonzero"></path> <path d="M805.549053,198.25 L646.440113,198.25 C653.48898,222.652832 676.013429,240.5 702.710526,240.5 C718.15407,240.5 732.536018,234.487836 743.227081,224.25 L797.860723,224.25 C796.378092,227.577913 794.718251,230.830628 792.88638,233.99586 C774.418213,265.906437 740.304652,286 702.710526,286 C645.214777,286 598.605263,239.437614 598.605263,182 C598.605263,124.562386 645.214777,78 702.710526,78 C757.00969,78 802.067717,119.679982 806.466676,173.436233 C806.699049,176.275875 806.815789,179.132186 806.815789,182 C806.815789,187.48728 806.388047,192.916979 805.549053,198.25 Z M753.445184,152.75 C743.29041,135.217885 724.295087,123.5 702.710526,123.5 C681.035358,123.5 662.110671,135.264303 651.985505,152.75 L753.445184,152.75 L753.445184,152.75 Z" id="Shape" fill-rule="nonzero"></path> <polygon id="Path" points="884.894737 227.573034 844.228618 286 780.789474 286 853.175164 182 780.789474 78 844.228618 78 884.894737 136.426966 925.560855 78 989 78 916.614309 182 989 286 925.560855 286"></polygon> </g> <g id="symbol"> <path d="M162.704242,110.276293 C171.36936,105.325768 182.407807,108.335663 187.359304,116.999082 C188.919538,119.728957 189.740216,122.818665 189.740216,125.962801 L189.740216,316.150365 L4.85091973,206.118797 C7.99691384,200.677091 12.5609798,196.055616 18.2100393,192.828215 L162.704242,110.276293 L162.704242,110.276293 Z" id="b1" fill="#ffffff)"></path> <path d="M8.02491261e-15,224.201231 C7.2291704e-15,217.704777 1.74432876,211.457863 4.90122436,206.032062 L234.776915,337.363836 C246.037545,343.79722 252.986954,355.769953 252.986954,368.736852 L252.986954,605.706169 C252.986954,615.684271 244.896517,623.773122 234.916457,623.773122 C231.771704,623.773122 228.681391,622.952605 225.95098,621.392677 L18.2100393,502.706849 C6.9494094,496.273466 -9.93088069e-15,484.300733 0,471.333834 L8.02491261e-15,224.201231 Z" id="f1" fill="#ffffff"></path> <path d="M474.113483,310.005374 C482.778601,305.054849 493.817048,308.064744 498.768545,316.728163 C500.328779,319.458038 501.149456,322.547745 501.149456,325.691881 L501.149456,515.879446 L316.260161,405.847878 C319.406155,400.406171 323.970221,395.784697 329.61928,392.557296 L474.113483,310.005374 L474.113483,310.005374 Z" id="b2" fill="#ffffff" transform="translate(408.704809, 411.750641) scale(-1, -1) translate(-408.704809, -411.750641) "></path> <path d="M253.012193,18.1691692 C253.012193,11.6727153 254.756522,5.4258011 257.913417,0 L487.789108,131.331775 C499.049737,137.765159 505.999147,149.737891 505.999147,162.70479 L505.999147,399.674107 C505.999147,409.65221 497.90871,417.74106 487.92865,417.74106 C484.783897,417.74106 481.693584,416.920544 478.963173,415.360615 L271.222232,296.674788 C259.961602,290.241404 253.012193,278.268672 253.012193,265.301772 L253.012193,18.1691692 Z" id="f2" fill="#ffffff" transform="translate(379.505670, 208.870530) scale(-1, -1) translate(-379.505670, -208.870530) "></path> </g> </g> </g> </g> </svg>
