<svg xmlns="http://www.w3.org/2000/svg" id="a" width="268" height="135" viewBox="0 0 268 135"><path d="m171.11,116.91c-32.06-3.81-63.32-15.91-89.99-34.09-13.1-9.4-26.8-20.8-32.1-36.4C38.61,7.53,99.51,7.53,125.91,13.83c34.8,8.4,63.64,23.09,88.14,45.59l.52.51.88-.91c-10.6-13.7-25.34-23.39-40.34-32.39C152.41,13.63,127.11,4.43,100.91,1.83c-24.1-2.5-59.6,1.4-65.8,30.4-4.6,26.9,19.3,47.5,38.8,61,24,15.4,51.2,25.7,79.4,29.5,6.94.94,13.85,1.74,18.11,2.03l-.32-7.84Z" fill="#ffffff"></path><path d="m171.67,115.91c-32.06-3.81-63.32-15.91-89.99-34.09-13.1-9.4-26.8-20.8-32.1-36.4C39.18,6.53,100.08,6.53,126.48,12.83c34.8,8.4,63.1,24.1,87.6,46.6l.5.5.9-.9c-10.6-13.7-24.8-24.4-39.8-33.4C152.98,12.63,127.68,3.43,101.48.83c-24.1-2.5-59.6,1.4-65.8,30.4-4.6,26.9,19.3,47.5,38.8,61,24,15.4,51.2,25.7,79.4,29.5,6.94.94,13.85,1.74,18.11,2.03l-.32-7.84Z" fill="#ffffff"></path><polygon points="202.14 119.55 168.6 104.3 168.6 134.8 202.14 119.55" fill="#ffffff"></polygon><polygon points="233.46 28.84 180.06 28.84 180.06 38.54 201.86 38.54 201.86 82.14 211.56 82.14 211.56 38.54 233.46 38.54 233.46 28.84" fill="#ffffff"></polygon><path d="m121.7,44.59c0,8.43,6.91,15.04,15.74,15.04h21.61c3.18,0,6.07,3.13,6.07,6.57v.4c0,3.29-2.73,5.98-6.07,5.98h-37.35v9.66h37.35c4.32,0,8.34-1.67,11.34-4.7,2.89-2.92,4.45-6.77,4.4-10.83v-.5c0-8.8-7.21-16.23-15.74-16.23h-21.61c-3.52,0-6.07-2.26-6.07-5.38,0-3.29,2.73-5.98,6.07-5.98h37.35v-9.66h-37.35c-8.68,0-15.74,7.01-15.74,15.64Z" fill="#ffffff"></path><path d="m100.28,28.83h-21.1c-8.88,0-16.1,7.22-16.1,16.1v21.1c0,8.88,7.22,16.1,16.1,16.1h21.1c.37,0,.74-.03,1.1-.06l5.55,9.54,8.39-4.88-4.81-8.28c3.59-2.96,5.88-7.43,5.88-12.43v-21.09c.05-4.25-1.58-8.27-4.59-11.31-3.06-3.09-7.15-4.8-11.51-4.8Zm.41,32.75l-8.39,4.88,3.47,5.97h-16.6c-3.53,0-6.4-2.87-6.4-6.4v-21.1c0-3.53,2.87-6.4,6.4-6.4h21.1c3.53,0,6.4,2.87,6.4,6.4v21.1c0,1.4-.46,2.69-1.22,3.75l-4.76-8.2Z" fill="#ffffff"></path></svg>
